<svg
  xmlns="http://www.w3.org/2000/svg"
  style="display: block"
  viewBox="584.761 612.243 893.787 842.266"
  width="1024"
  height="1024"
  preserveAspectRatio="none"
>
  <defs><linearGradient
      id="b"
      gradientUnits="userSpaceOnUse"
      x1="1469.78"
      y1="934.44"
      x2="1457.17"
      y2="931.763"
    ><stop class="stop0" offset="0" stop-color="#f2f6e6" /><stop
        class="stop1"
        offset="1"
        stop-color="#cad1be"
      /></linearGradient><linearGradient
      id="a"
      gradientUnits="userSpaceOnUse"
      x1="822.411"
      y1="1389.93"
      x2="835.834"
      y2="1393.45"
    ><stop class="stop0" offset="0" stop-opacity=".949" stop-color="#c3c9c1" /><stop
        class="stop1"
        offset="1"
        stop-color="#dee4c5"
      /></linearGradient></defs><path
    fill="#dae0cf"
    d="M933.432 776.388c-3.091-42.03-.676-79.437 17.766-118.298 11.013-23.207 23.101-43.719 51.742-45.738 10.28-.724 16.18 2.14 23.9 9.103 35.61 33.355 53.83 93.108 54.55 140.391 1.17 77.325-27.61 149.913-45.65 223.859-6.16 25.265-3.6 40.075-7.11 62.055-.17 3.84-1.09 5.93.77 8l.4.09c10.31-53.18 13.67-108.011 36.42-157.703 10.55-23.056 18.44-45.311 22.99-70.332a229.4 229.4 0 0 0 3.45-47.458c-.96-26.561-5.34-43.716 1.2-71.292 6.42-27.074 22.43-53.496 47.23-66.984 17.15-8.536 49.03-26.813 68.22-20.56 56.44 18.399 45.35 103.825 32.93 146.354 34.14-25.331 90.81-51.706 72.48 20.877-3.66 14.502-18.11 45.464-27.32 58.013l1.2-.171c19.83-9.377 40.19-18.797 62.45-21.268 27.1-3.009 56.91 10.913 79.81 24.085 1.86 1.064 5.37 2.875 6.95 4.097 5.89 3.824 6.09 4.411 13.01 5.909 11.51-1.388 19.23 3.4 25.07 13.018.73 18.668-1.5 27.171-9.76 44.202-.93 3.243-2.14 6.275-1.85 9.569l4.3-6.184c11.79-1.596 10.15 17.191 9.51 25.094a80 80 0 0 1-29.07 55.084c-6.57 5.43-27.93 16.15-29.94 18.28-43.99 46.59-101.03 76.75-164.12 87.54-26.53 4.53-55.42 10.77-82.39 9.81-4.64.12-13.75.08-17.81 1.05 8.79 2.92 18.05 3.35 27.15 4.77 30.03 4.68 60.68 6.67 91.07 6.53 14.39-.2 28.76-1.04 43.07-2.51 5.74-.57 23.91-2.81 29.01-2.61 20.41.81 63.75 5.21 73.9 26.25 2.81 5.84 4.08 11.09 3.94 17.4-3.7 5.28-13.16 12.92-18.51 17.31-10.58 8.7-20.32 31.39-21.7 44.78-4.25 17.42-14.69 31.32-24.51 46.14-14.88 15.65-29.44 31.33-50.3 39.17l.59 1.15c23.6-8.83 34.12-20.32 50.01-38.9 11.19-14 21.61-33.3 30.21-49.04 2.75-4.53 5.79-13.8 7.99-19.31-.67 18.67-6.61 32.32-15.79 48.38-19.42 34.01-50.44 64.96-90.89 70.15-11.27 1.45-28.54.66-37.98 3.04-16.84 4.06-32.91 14.83-49.71 18.74-80.21 18.68-128.71-53.99-145.34-122.4-3.74-15.35-6.98-31-11-45.74.32 12 1.32 24.66 1.09 36.7-1.21 64.71-11.51 148.47-74.643 182.6-21.652 11.14-46.57 14.24-69.275 23.07-18.921 7.37-36.809 16.05-55.39 24.13a102 102 0 0 1-17.924 5.93c-57.855 13.45-84.049-47.38-94.914-92.89-3.43-14.36-3.981-27.23-7.72-41.28-2.341-8.85-10.037-15.31-14.052-23.31-5.9-11.6-1.872-31.97 2.198-43.83 16.386-47.76 75.823-93.9 120.707-115.15l-.718-1.59c-28.234 10.71-72.438 19.67-101.024 17.89-57.212-3.56-83.475-53.8-105.316-99.24-2.702-5.62-15.52-19.55-20.37-25.23-4.955-5.4-13.588-14.25-16.462-20.65-3.839-3.43-6.395-12.521-7.025-17.475-2.872-22.585 11.454-48.965 24.236-66.286 17.794-24.112 45.256-45.989 75.801-49.639 35.021-4.184 69.592 12.51 99.065 29.543 9.805 5.667 20.464 10.845 29.394 17.777-6.673-8.98-11.544-18.09-16.246-28.259-30.202-65.324-57.521-157.615-8.812-220.54 28.039-36.223 64.547-39.527 98.558-10.256 32.916 28.329 41.079 73.914 44.522 114.953zM1039.2 1201.56c1.78-7.46.96-37.56.87-46.23l-1.53.87c-.88 5.4-1.71 16.79-.12 21.89-1.92 11.93-3.5 33.42-7.56 43.37-.42 3.87-.84 5.67-1.77 9.48-.87 3.6-1.66 7.42-3 10.85-9.11 39.54-29.809 77.03-62.721 101.47 9.151-12.25 18.448-21.78 26.797-35.46 28.294-46.38 39.254-96.82 41.064-150.18.28-17.29-.7-38.53-3.66-55.72l-2.41.52c-3.04 2.81-6.42 8.34-8.76 12.05-34.986 55.37-81.536 102.43-114.729 159.02-5.5 9.37-9.403 19.37-16.064 28.01 6.634-29.85 25.202-51.58 38.419-75.56 7.971-14.46 83.714-112.66 83.824-115.36-3.82 3.37-6.87 7.59-10.468 10.62-64.121 54.04-133.667 105.87-181.937 175.48-10.976 15.83-15.656 24.45-20.784 42.94l-1.361-.68c-1.192-12.8 8.612-31.87 15.234-42.3 42.744-67.36 105.873-119.45 166.927-169.56 10.078-8.27 19.373-17.42 29.429-25.7 3.17-2.5 6.61-5.33 9.85-7.68l-.03-2.19c-28.225-7.43-106.626 19.92-134.652 31.93a474 474 0 0 0-49.28 25.19c-44.913 26.15-95.041 62.39-110.72 114.6-4.918 16.38-2.839 31.56 9.871 43.64 1.647-5.85 3.603-12.87 7.947-17.19l1.915-.33 1.106 1.12c-7.082 42.47 3.894 87.59 28.348 123.67 11.812 17.43 45.688 38.97 66.415 22.6 12.125-12.7 18.163-19.38 34.031-27.12 24.216-11.8 47.713-7.34 72.323-11.22 87.506-13.78 96.856-128.58 97.186-196.84M657.431 894.306c22.596-7.711 56.547-1.646 76.814 9.884 3.433 1.953 13.364 6.353 14.748 9.508.612.078-15.043-6.56-16.309-7.079-64.19-26.311-120.773.974-136.839 69.073-1.509 6.398.534 17.171 5.401 22.319 31.934 28.679 122.783 42.389 161.689 44.299 5.251.53 25.67 2.33 28.75 4.47-6.971.1-25.379.83-31.355-.41-42.306-1.37-105.459-11.86-144.181-28.22 1.942 2.89 3.38 5.04 5.58 7.73 20.197 20.53 30.453 27.57 59.522 36.99 8.792 2.84 19.097 4.64 27.495 8.31-25.99-.24-46.335-5.89-69.539-17.89 9.383 10.31 18.053 23.87 27.455 33.23 29.736 29.6 57.745 46.37 98.338 51.77 45.315 6.03 198.339-63.2 225.925-54.86l.038-2.23a560 560 0 0 0-48.522-12.89c-15.252-3.37-74.861-12.08-83.48-19.01 3.211-1.61 84.165 11.06 95.495 13.45a314 314 0 0 1 31.35 8.5c-.464-3.28-5.136-5.61-7.873-7.48-65.467-40.05-115.603-56.39-154.431-125.213-8.147-14.44-69.818-41.917-87.492-49.837-28.93-12.963-51.953-8.285-80.514 4.553zm570.079 413.204c3.79.47 6.18 1.13 9.8-.05l.01-2.25c-22.51-9.09-42.88-33.32-53.37-54.97-.87-1.79-3.51-9.02-2.97-10.89 3.85 4.78 6.14 9.88 9.68 15.05 11.77 17.2 29.19 38.43 50.48 42.97 16.64 3.54 25.44-19.71 34.29-23.58l2.56.15c-1.17 9.07-18.07 28.06-27.69 31.1l-.38 1.75c3.8 3 6.68 3.76 11.51 4.76 16.29 4.17 31.35 2.1 46.7-4.68 32.8-14.48 54.64-45.05 65.28-78.49 3.87-12.19 5.14-25.48 10.03-37.38 5.67-12.6 15.01-25.15 20.09-37.86 5.28-13.21-27.94-17.42-36.16-18.08-35.91-2.89-70.78 3.64-107 2.84a663 663 0 0 1-93.12-9.2c-16.91-2.92-34-7.06-50.88-9.54 42.68 19.3 168.28 75.01 194.19 105.42-41.94-27-81.37-42.94-125.82-64.02-47.09-22.33-83.01-41.11-133.45-56.25-3.77-1.98-5.66-3.29-9.78-4.07 11.51 14.71 21.62 36.67 29.94 53.76 29.42 60.39 55.23 113.29 120.56 142.07 13.45 5.93 23.56 7.19 35.5 11.44m236.98-417.608c-.18-7.616-6.58-14.426-13.43-17.164l-2.19-.598c.78 12.784 2.01 13.117-1.92 25.554l-1.18.843c-2.08-4.659-.73-15.696-4.93-20.896l-4.23-.518c-7.56 5.724-16.68 9.923-26.36 17.503-22.64 17.724-40.27 38.857-66.03 51.207 33.56-27.231 51.59-51.76 90.7-78.144-1.39-2.976-8.03-6.513-11.18-8.519-46.41-27.165-76.64-30.488-124.81-3.656-6.94 3.864-11.64 3.812-16.05 11.719-5.82 14.197-10.62 27.676-17.49 41.461a236.07 236.07 0 0 1-89.25 96.956c-18.56 11.19-39.09 20.26-57.12 32.09-13.75 9.02-26.14 21.71-39.2 31.9-3.35 2.62-25.22 16.42-25.93 17.63 9.99 1.72 108.21-17.65 124.24-20.83 47.2-9.38 98.68-7.62 143.99-18.95a170.8 170.8 0 0 0 56.35-25.53c36.87-26.072 59.3-58.974 73.73-100.288 2.36-6.738 9.2-26.726 12.29-31.77M1023.51 1041.7c-7.95-38.2 23.06-124.76 32.96-163.996 19.46-77.095 28.97-152.289-13.53-224.734-8.48-14.456-17.43-25.656-34.12-29.883-12.138 2.117-15.682 6.95-20.453 18.457a179 179 0 0 0-12.694 51.328c-2.864 27.405 2.592 62.773 1.58 92.707-.738 21.851-15.601 88.546-12.127 104.124 11.11 49.828 36.714 104.237 56.314 152.067zm221.71 280.07-.28-1.97c-24.17-2.22-48.14-14.46-69.29-25.17-54.4-27.54-81.37-73.91-106.6-126.87-4.82-10.12-16.32-28.08-19.52-38.41-1.47-2.28-1.76-3.06-3.84-4.82l-1.55 1.42c2.96 11.04 3.54 23.02 6.05 34.42 12.9 58.62 24.19 133.25 79.76 167.5 18.32 10.95 42.5 17.22 63.65 12.23 15.63-3.68 37.03-17.14 51.62-18.33m-285.832-279.48c-1.231-3.65-23.531-21.57-28.646-26.86-25.765-26.648-49.805-54.399-72.564-83.687-27.098-34.87-60.753-74.221-78.705-114.703l-.841 3.644.383.853c4.46 10.186 7.312 22.783 11.349 32.863 12.911 32.233 23.65 62.485 52.964 83.066 8.546 6 36.908 24.978 40.974 30.204-16.861-6.054-36.033-17.064-50.371-27.864a1531 1531 0 0 0 11.262 18.077c25.701 40.528 72.567 62.867 114.195 84.407m196.092-66.12c8.81-10.822 19.16-22 28.5-32.526 13.43-14.549 24.65-29.855 38.29-44.309 36.43-38.584 82.31-78.638 88.47-134.635 4.11-37.246-67.92 10.761-70.23 18.49-20.04 67.165-44.78 133.532-85.7 191.333zm-244.259 430.3c-13.681 1.51-26.758 2.74-39.564 8.15-13.562 5.73-22.702 16.23-34.581 24.32 26.192-9.94 51.562-21.02 78.141-31.2zM1271.9 869.953c-11.53 9.476-23.8 19.353-34.15 30.103-32.47 33.743-60.81 71.193-93.91 104.394-3.92 3.94-18.1 18.08-18.82 22.28l.43.21.84-.55c16.52-10.56 36.57-19.81 54.06-31.761 48.37-33.055 73.9-69.105 92.3-123.226zm134.3 144.217-.93-1.6c-60.11 55.01-140.94 46.54-215.63 59.85-39.66 7.06-87.01 18.36-127.61 23.88-.8.11-2.47.12-3.29.15 11.52 4.08 31.46 5.9 44.09 7.37 74.28 8.63 155.82 1.39 223.58-31.96 23.36-11.5 65.6-35.96 79.79-57.69m-178.47-224.192-.94.88c-27.54 25.58-52.18 40.406-74.05 73.437-24.29 36.676-32.81 71.479-47.86 111.766-10.8 28.909-31.3 57.469-49.36 82.029-3.41 4.62-13.38 17.34-13.01 22.44 31.69-15.77 44.94-30.97 67.07-58.05 45.39-55.509 80.87-119.44 104.53-187.127 2.89-8.293 4.98-17.101 7.33-25.576 1.54-5.568 5.59-14.542 6.29-19.799M949.771 916.87c.046-5.793 3.486-25.63 3.092-27.48-4.768-22.341-18.978-93.683-33.174-108.722-3.636 50.284 8.347 91.063 28.267 136.454l1.225.631zm58.009 110.78c-2.44-5.6-4.64-10.58-7.41-16.03a1224 1224 0 0 1-41.865-104.872c-.175 3.753-1.774 17.241-1.118 19.388 8.163 26.735 27.767 61.177 39.943 86.844 2.83 5.52 9.17 17.17 11.22 22.73 1.28-3.3.33-3.77-.77-8.06M834.622 653.163c-7.848 2.69-10.934 3.769-18.077 7.946 23.334-.222 38.996 5.753 56.196 22.208 14.484 13.857 36.641 53.709 43.807 73.031l7.647 14.412c-11.135-38.823-15.406-81.267-50.963-107.095-12.843-9.329-23.073-11.424-38.61-10.502M651.08 1080.98c23.63 43.69 46.52 62.82 96.879 65.14l-.227-1.16c-45.4-11.08-66.831-28.79-96.652-63.98m581.38-380.1c4.56-19.187-7.27-57.049-24.56-68.744-46.05-2.022-80.67 45.409-84.17 87.561l-3.88-.007c-.29-34.305 15.38-55.884 38.07-79.879-36.57 20.957-54.83 42.337-59.77 86.115-2.25 19.965.77 34.859 1.61 54.454.59 15.722-.26 31.464-2.54 47.03-4.77 31.183-15.3 58.997-27.38 87.888-3.75 8.967-6.44 16.897-8.48 26.38 16.1 21.783 8.48 73.702-3.89 96.872l1.6.56c3.13-6.01 8.95-14.21 12.88-20.37 37.16-58.149 43.71-129.892 91.85-181.784 11.88-12.807 23.63-24.729 36.94-35.845 9.45-7.888 19.75-14.798 28.36-23.384l1.09-1.092 10.44-47.036c3.91-30.785 7.39-57.407-10.9-83.674 10.59 27.719 17.39 48.429.51 75.468q1.26-10.24 2.22-20.513m-244.194-79.991c-50.517 43.538-53.417 127.592-41.894 188.39 2.932 15.472 7.257 32.359 9.44 47.616l.241 1.746 1.929 1.293c.121-5.842 1.633-11.815 2.805-17.541 3.449-16.853 6.853-34.063 8.132-51.227 4.469-59.955-15-114.877 19.347-170.277m-30.373 407.301c-13.684-34.199-15.436-55.072-10.177-92.252-19.928-38.77-35.974-86.595-36.461-129.862-.4-35.551 6.894-36.721-13.744-70.788-19.088-31.508-41.451-70.661-84.419-67.043-12.903 3.96-22.139 17.444-28.243 28.85-14.06 26.275-17.784 64.696-8.935 93.101 15.386 49.389 95.666 147.298 132.425 188.236 9.847 10.966 20.539 21.3 30.85 31.838zm80.587 36.82c2.46-7.1 10.91-22.32 14.42-30.13 15.77-35.151 13.1-54.95 8.23-90.739-11.75 27.306-11.54 64.909-18.87 90.629-.4 8.85-4.69 25.4-3.78 30.24m-49.598-9.9.614.6c3.856 2.79 26.374 20.76 29.624 23.85l2.13 1.64 1.75-.47c-.05-.46-68.386-133.05-70-134.543-1.275 5.409-1.538 26.765-1.399 32.921.771 34.292 13.061 53.132 37.281 76.002m478.708-121.762c-4.95 6.331-11.12 13.905-15.2 20.665-3.19 6.91-18.35 37.791-22.88 41.756-.82 2.767-2.13 6.341-2.13 9.131 2.18-2.03 7.05-4.61 9.78-6.359 9.02-5.782 16.28-12.484 21.92-21.627 7.33-11.881 11.91-29.865 8.51-43.566"
  /><path
    fill="url(#a)"
    d="M836.146 1372.59c2.252-6.93-1.433-12.09 3.569-16.96 6.126 22.59-2.713 58.69-25.551 69.04l-.839-.64c3.468-5.31 7.177-7.33 10.63-11.92 8.245-10.96 11.563-26.1 12.191-39.52"
  /><path
    fill="#b1baaa"
    fill-opacity=".847"
    d="M755.628 1380.57c2.704 1.31 22.694 37.84 24.515 42.6-6.861-4.46-21.021-34.09-24.515-42.6"
  /><path
    fill="#b1baaa"
    fill-opacity=".965"
    d="M836.146 1372.59c-.373-12.31-.594-27.77.435-39.85 1.599 8.64 2.442 14.17 3.134 22.89-5.002 4.87-1.317 10.03-3.569 16.96"
  /><path
    fill="#b1baaa"
    d="m1448.19 872.429.68-.289c.78 12.784 2.01 13.117-1.92 25.554l-1.18.843c-2.08-4.659-.73-15.696-4.93-20.896l-4.23-.518c1.58-1.675 1.46-1.638 3.52-2.63l4.37 1.89c2.94-1.051 1.55-.32 3.69-3.954M762.935 1042.31c5.251.53 25.67 2.33 28.75 4.47-6.971.1-25.379.83-31.355-.41z"
  /><path
    fill="#8a9589"
    fill-opacity=".792"
    d="M1038.42 1178.09c-1.59-5.1-.76-16.49.12-21.89l1.53-.87c.09 8.67.91 38.77-.87 46.23-.37-6.72.97-17.91-.78-23.47"
  /><path
    fill="#d7dccd"
    fill-opacity=".051"
    d="M1000.37 1011.62c2.77 5.45 4.97 10.43 7.41 16.03 1.1 4.29 2.05 4.76.77 8.06-2.05-5.56-8.39-17.21-11.22-22.73z"
  /><path
    fill="#d7dccd"
    d="m1287.4 846.765 1.2-.171c19.83-9.377 40.19-18.797 62.45-21.268 27.1-3.009 56.91 10.913 79.81 24.085 1.86 1.064 5.37 2.875 6.95 4.097 5.89 3.824 6.09 4.411 13.01 5.909-2.89 1.084-4.57 1.435-7.56 1.937-1.15 1.695-1.17 1.082-1.29 2.72-2.54 1.75-4 3.102-7.05 3.615-1.39-2.976-8.03-6.513-11.18-8.519-46.41-27.165-76.64-30.488-124.81-3.656-6.94 3.864-11.64 3.812-16.05 11.719-5.75-2.349-3.95-2.755-10.34-2.519 2.94-6.154 2.1-8.402 7.37-14.819l-.91 3.964.8 1.194c2.49-3.642 3.49-6.268 7.6-8.288"
  /><path
    fill="#8a9589"
    d="M1437.81 853.508c5.89 3.824 6.09 4.411 13.01 5.909-2.89 1.084-4.57 1.435-7.56 1.937-1.15 1.695-1.17 1.082-1.29 2.72-2.54 1.75-4 3.102-7.05 3.615-1.39-2.976-8.03-6.513-11.18-8.519l1.7-.797-1.69-1.997.2-1.428 4.83.723c4.73.923 8.25 3.771 12.64 3.849.02-2.6-1.48-3.379-3.61-6.012"
  /><path
    fill="#dae0cf"
    d="m1425.44 858.373-1.69-1.997.2-1.428 4.83.723c3.07 2.196 6.96 4.335 8.39 7.643-3.93.934-8.48-2.804-11.73-4.941m-394.21 299.247c3.25-11.02 2.67-12.14 4.49-23.18 4.47 39.89-2.79 52.54-4.86 87.02-.42 3.87-.84 5.67-1.77 9.48-.87 3.6-1.66 7.42-3 10.85-9.11 39.54-29.809 77.03-62.721 101.47 9.151-12.25 18.448-21.78 26.797-35.46 28.294-46.38 39.254-96.82 41.064-150.18"
  /><path
    fill="#d7dccd"
    d="M990.963 1081.2a560 560 0 0 0-48.522-12.89c-15.252-3.37-74.861-12.08-83.48-19.01 3.211-1.61 84.165 11.06 95.495 13.45a314 314 0 0 1 31.35 8.5c4.904 3.03 8.635 3.07 13.076 6.11l-.054 1.25c-3.736 1.93-3.679 1.84-7.865 2.59"
  /><path
    fill="#dae0cf"
    d="M1237.32 1305.21c-22.51-9.09-42.88-33.32-53.37-54.97-.87-1.79-3.51-9.02-2.97-10.89 3.85 4.78 6.14 9.88 9.68 15.05 11.77 17.2 29.19 38.43 50.48 42.97 16.64 3.54 25.44-19.71 34.29-23.58l2.56.15c-1.17 9.07-18.07 28.06-27.69 31.1-4.42-2.47-7.69-.9-12.98.17"
  /><path
    fill="#b1baaa"
    d="m1021.36 1096.09-1.97-.6.34-1.03c9.86.22 8.83 2.06 14.73-6.29 1.92 2.52 6.66 9.82 8.78 10.68 4.43 1.79 5.07 1.79 8.05 5.46-3.77-1.98-5.66-3.29-9.78-4.07-4.89 22.42 8.9 17.94 8.02 29.11-1.47-2.28-1.76-3.06-3.84-4.82l-1.55 1.42-1.75-1.01c-1.69-4.19-1.38-5.61-4.41-7.66l-1.52.51c2.13 14.5 4.42 19.71 4.22 36.76l-.61.78-1.53.87c-.88 5.4-1.71 16.79-.12 21.89-1.92 11.93-3.5 33.42-7.56 43.37 2.07-34.48 9.33-47.13 4.86-87.02-1.82 11.04-1.24 12.16-4.49 23.18.28-17.29-.7-38.53-3.66-55.72l-2.41.52c2.01-1.72 2.22-1.59 3.13-4l-.93-1.98c-3.04-.73-2.88-.68-6-.35"
  /><path
    fill="#d7dccd"
    d="m1027.57 1101.9 8.03-.52 1.36 1.93-2.66 2.03c.03 7.66 2 22.76 1.42 29.1-1.82 11.04-1.24 12.16-4.49 23.18.28-17.29-.7-38.53-3.66-55.72"
  /><path
    fill="#b1baaa"
    d="M989.496 1055.71c3.856 2.79 26.374 20.76 29.624 23.85-3.51-.18-5.71-.35-9.19-.87l-1.09.75c1.09 1.87 1.39 2.27 1.96 4.35.94.79 1.82 1.34 2.4 2.43-8.12-2.06-15.762-.75-22.275-2.79l.038-2.23c4.186-.75 4.129-.66 7.865-2.59l.054-1.25c-4.441-3.04-8.172-3.08-13.076-6.11-.464-3.28-5.136-5.61-7.873-7.48 2.441-.27 1.34.15 3.316-1.21l-.465-1.6 4.343 1.66c3.221 1.06 6.515 4 9.398 6.15l.915-.42c-1.882-6.36-5.437-7.08-5.944-12.64m-397.339-48.38.645.54c5.152 4.41 8.991 9.66 14.113 13.45-4.596-5.87-11.041-14.29-12.98-21.606 1.482.666 2.999 1.996 3.78 3.296 3.192 5.31 15.829 10.55 18.533 14.19l-.099.95c1.942 2.89 3.38 5.04 5.58 7.73-3.562-1.79-9.089-6.5-12.057-6.68-1.97 2.27-1.603 1.44-1.287 5.85l.234 2.93c-4.955-5.4-13.588-14.25-16.462-20.65m415.623 20.32c4.99 5.87 5.3 15.48 11.1 18.36 2.6-1.78 1.52-.61 2.56-4.24l2.07-.07c.94 1.84 1.73 3.43 2.58 5.32l2.54.74c-.17 3.84-1.09 5.93.77 8l.4.09c.27 2.33-1.05 16.09-2.49 17.48-1.55-6.49.3-22.54-6.03-25.67-.87 1.17-.49 5.24-.61 7.43-2.41-2.23-11.12-15.83-12.12-19.38 1.28-3.3.33-3.77-.77-8.06"
  /><path
    fill="#d7dccd"
    d="M965.722 1040.47c10.44-.4 13.705 12.67 23.16 14.64l.614.6c.507 5.56 4.062 6.28 5.944 12.64l-.915.42c-2.883-2.15-6.177-5.09-9.398-6.15-5.81-6.51-14.156-15.63-19.405-22.15m271.598 264.74c5.29-1.07 8.56-2.64 12.98-.17l-.38 1.75c3.8 3 6.68 3.76 11.51 4.76-8.63 3.73-26.22 1.28-33.92-4.04 3.79.47 6.18 1.13 9.8-.05z"
  /><path
    fill="url(#b)"
    d="M1468.58 920.022c2.36 2.23 1.81 1.327 3.26 4.073-1.87 3.907-4.5 3.91-4.25 9.253-4.95 6.331-11.12 13.905-15.2 20.665.08-3.445.71-8.094 2.4-11.12 3.67-4.568 7.53-11.162 9.49-16.687z"
  /><path
    fill="#b1baaa"
    d="m1451.06 872.738 4.64-1.343-.75-2.281c10.88-1.288 16.57 15.963 9.54 20.788-.18-7.616-6.58-14.426-13.43-17.164M965.722 1040.47c5.249 6.52 13.595 15.64 19.405 22.15l-4.343-1.66c-5.029-3.78-19.574-13.62-21.396-18.67 2.48-.5 3.95-1.04 6.334-1.82"
  /><path
    fill="#8a9589"
    d="M1244.94 1319.8c3.54-.16 12.49.82 16.66 1.02 20.31.98 27.68.08 46.28-6.71l.59 1.15c-19.24 10.24-42.1 8.58-63.25 6.51z"
  /><path
    fill="#b1baaa"
    d="M1154.76 1116.88c-7.09 1.43-41.44-3.95-49.45-6.54 16.72.89 33.53 4.13 50.38 4.22 5.37.03 11.67.17 16.88 1.27-4.64.12-13.75.08-17.81 1.05m300.03-173.987c.98-2.257 1.21-5.147 1.19-7.593-.07-9.579 4.71-11.319 9.55-17.844l.6-.819c-.93 3.243-2.14 6.275-1.85 9.569-1.96 5.525-5.82 12.119-9.49 16.687"
  /><path
    fill="#8a9589"
    d="M874.24 1119.6c-5.62 3.56-30.999 13.87-38.193 16.55l-.718-1.59c10.852-6.26 26.834-11.7 38.911-14.96"
  /><path
    fill="#b1baaa"
    d="M1427.38 1004.9c-3.4 4.39-8.09 7.56-12.71 10.57.45-2.17 12.82-17.065 14.84-19.701-.82 2.767-2.13 6.341-2.13 9.131M933.432 776.388c1.3 5.373 5.057 17.314 4.677 21.586l-1.041-.106c-2.213-3.752-5.4-16.534-5.418-20.72zM657.431 894.306c-4.432 1.531-14.737 8.435-18.054 7.488 4.096-3.652 10.817-7.14 16.119-8.521z"
  /><path
    fill="#8a9589"
    d="M1272.54 864.714c-1.88-7.057 1.31-10.919 6.21-15.785l1.16.966c-5.27 6.417-4.43 8.665-7.37 14.819"
  /><path
    fill="#b1baaa"
    d="M778.632 820.684c-1.872-4.977-4.374-11.088-4.241-16.355l.2-.09-.226 1.648 1.528.382c1.059 2.466 2.675 8.001 3.58 10.771z"
  /><path
    fill-opacity=".008"
    d="m1405.27 1012.57.93 1.6c-14.19 21.73-56.43 46.19-79.79 57.69-67.76 33.35-149.3 40.59-223.58 31.96-12.63-1.47-32.57-3.29-44.09-7.37.82-.03 2.49-.04 3.29-.15 40.6-5.52 87.95-16.82 127.61-23.88 74.69-13.31 155.52-4.84 215.63-59.85"
  /><path
    fill="#292d2c"
    fill-opacity=".024"
    d="M1229.73 645.925c18.29 26.267 14.81 52.889 10.9 83.674-3.02-.302-3.22 0-5.49-1.852l1.12-2.514c-1.73-3.737-9.42-3.782-12.96-10.655.41-5.57-.34-.496 3.56-3.915.37-2.635.56-4.779.52-7.465 2.69-2.565 1.11-1.706 5.08-2.318a706 706 0 0 1-2.22 20.513c16.88-27.039 10.08-47.749-.51-75.468"
  /><path
    fill="#b1baaa"
    d="M1038.48 1065.01c-2.33 1.23-3.36 11.24-7.8 13.84l-1.25-.61 1.69-3.29c8.69-16.66 2.87-27.1 11.14-40.18-.4 8.85-4.69 25.4-3.78 30.24m366.79-52.44c1.65-2.11 29.08-36.506 27.94-35.668-5.7 14.598-17.03 25.558-27.01 37.268z"
  /><path
    fill="#8a9589"
    d="M911.221 1406.47c6.47-1.74 21.503-3.14 26.969.56l-2.236 1-.2-2.48-.639-.2-.792 2.85c-6.202.05-13.903-.81-19.106-.46z"
  /><path
    fill="#b1baaa"
    d="M1155.48 976.17c-4.01 5.543-13.14 17.197-17.91 21.931.86-5.445 12.8-19.835 17.24-23.578z"
  /><path
    fill="#8a9589"
    fill-opacity=".973"
    d="m1119.85 719.69 3.88.007c-.32 6.747-.14 14.902-.81 21.28-1.45-7.829-2.37-13.391-3.07-21.287"
  /><path
    fill="#b1baaa"
    d="M1059.07 1039.11c-2.17 4.35-5.58 12.76-9.82 14.48.35-4.68 5.35-11.01 8.22-15.04zm-311.338 105.85c4.974-.39 14.883-1.78 18.979.55l-1.465.64-.251-1.58-.551-.1-.71 1.92c-5.928.16-9.844.12-15.775-.27zm208.321-286.319 1.929 1.293c.202 4.77.676 8.769-.332 13.423l-.762-.591c-1.256-5.202-.912-8.806-.835-14.125"
  /><path
    fill="#5f6565"
    fill-opacity=".227"
    d="m1358.18 1274.94.3 1.42c-15.89 18.58-26.41 30.07-50.01 38.9l-.59-1.15c20.86-7.84 35.42-23.52 50.3-39.17"
  /><path
    fill="#292d2c"
    fill-opacity=".031"
    d="M1382.69 1228.8c2.46-.21 1.53-.07 3.85-1.55l2.15.07c-8.6 15.74-19.02 35.04-30.21 49.04l-.3-1.42c9.82-14.82 20.26-28.72 24.51-46.14"
  />
</svg>
