<svg xmlns="http://www.w3.org/2000/svg" viewBox="0 0 150 76" width="150" height="76" style="width: 256px; height: 256px">
  <path d="m147.9 43.8c-0.9-0.8-2.5-0.8-3.5 0.5-1.3 1.6-4 4.5-6.2 4.5-3.8 0-1-7.8-0.5-9.7 0.3-2.8-3.9-4.2-5.5-1.4-2.1 3.9-6.7 10.6-11.6 10.6-4.4 0-3.9-6.8 0.4-11.5 3.6-4 8.9-6.3 12.9-3.3 3 2.1 5.6-0.9 4.7-3.2-0.9-2.2-4.6-3.7-8.2-3.7-8.1 0-15 6.5-17.6 13.2v0.6c-1.7 2.2-6.4 8.4-10.8 8.4-1.2 0-1.8-1.3-1.1-3.3 1.4-3.9 5.6-8.6 3.4-12.1-1.5-2.4-4.8-2.5-8.5-3 0.8-1.7 1.2-3.3 1-5.4-0.9-5.6-8.7-6.4-11.2-0.4-1.3 3.5 0 6.9 2.5 8.9-1.3 2.3-4.8 4.9-8.8 5.4 1.2-7.3-3.2-12.6-9-12.5-3.7 0.1-6 1.8-7.1 5.2-0.9-0.9-2.1-1.3-3.5-0.7-1.9 0.9-5.1 4.9-6 9l-0.1 0.4c-2.3 3.1-8 8.4-12.1 8.5-3.3 0-4.1-4.1-3.1-8.7 0.4-1.1 1.4-1.8 1.9-2.3 8.6-8.2 16.3-16.6 18.4-24.9 0.5-2.1 1-5.6 0.3-7.8-0.7-2.5-2.6-4.3-5.6-4-4.9 0.5-8.5 5.2-11.6 11.1-2.7 5.1-6.4 13.4-8.8 24-1.8 2.2-5.6 4.1-9.2 4.2-3.2 0-6.1-1.1-9-3.7l0.5-1.4 1-0.6c7.8-3.5 15.2-11.1 18.3-17.8 0.9-1.9 3.5-8.2 0.5-12.1-1.2-1.4-2.6-2.2-4.9-2.1-3.6 0.1-6.7 2.5-9 5.6-3.2 4.4-6.7 11.6-10.3 21.4-0.8 1.3-3.5 0-4.5 2.3-0.4 0.7-0.9 4 2.6 4.3-2.6 8.2-7.4 20.4-7.1 29.5 0.1 3 1.2 5.8 3.2 6.9 1 2.3 8.6 4.4 12.9-4.1 3.6-6 4.9-16.6 2-23.6 3.8 0.9 8.3 0.6 12.2-1.8-0.2 4.6 1.4 10.4 6.7 10.9 4.1 0.6 9.9-1.2 14.8-6.5 1.2 3.7 4.2 6.7 10 6.7 6 0 11.2-3.3 14.2-9.4 0.1-0.1 0.1-0.4 0.2-0.8 5.4-0.1 10.7-2.6 13.3-6.3l1.5-2.3 5.1 0.8c0.9 0.1 0.9 0.7 0.2 2-1.9 3.3-4 7-3.9 9.8 0.1 3.6 2.7 6.2 6.7 6.2 3.9 0 7.4-1.8 11.3-5.8 0.9 3.1 3.3 5.4 7.2 5.4 4.2 0 7.9-2.2 11.6-6.3 0.1 4 2.6 6.5 6.6 6.5 5.3 0 8.4-3.6 10.2-6.3 1-1.2 0.9-3.2 0-4zm-94.7-37.9c2-0.8 0.9 4.7 0 7.2-2.1 5.4-7.7 11.4-12.8 16.7 2.2-8 9-22.3 12.8-23.9zm-24.3 2.3c1-0.2 1.7 0.2 1.8 1.6 0.1 4.5-5.6 12.8-12.8 17.5 2.2-5.8 7.2-18.2 11-19.1zm-20.2 61c-4.2-0.1-0.7-11.6 0.9-16.6l3.1-9.7c1.7 1.5 3.8 5.2 3.1 11.8-0.5 5-3.8 14.5-7.1 14.5zm55.3-20.1c-6.2-0.1-6.6-8.7-1-14.1 0.6 4.6 4.4 7.6 8.9 8.6-1.8 3.4-4.8 5.5-7.9 5.5zm9.8-10.2c-6.9-1.1-7.4-7.8-3.3-7.6 3.3 0.2 4 4.5 3.3 7.6zm17.4-9.7c-2.3-1.5-0.6-4.8 0.7-3.9 0.9 0.7-0.2 3.1-0.7 3.9z" fill="#000000" />
</svg>
