<svg width="275" height="299" viewBox="0 0 275 299" fill="none" xmlns="http://www.w3.org/2000/svg">
<path d="M151.639 23.4457L166.139 15.4457C174.31 28.1941 182.697 54.191 172.296 88.5482C196.85 62.3614 223.56 56.6271 238.686 57.3295L239.008 73.8871L260.115 78.4447L253.508 99.0023L267.687 107.56C260.732 121.011 242.411 141.273 207.455 149.444C242.411 157.615 260.733 177.878 267.688 191.329L253.509 199.887L260.116 220.445L239.009 225.002L238.687 241.56C223.561 242.262 196.852 236.527 172.297 210.34C182.699 244.698 174.313 270.696 166.141 283.445L151.64 275.445L137.14 291.445L122.64 275.445L108.14 283.445C99.9687 270.696 91.5805 244.698 101.982 210.34C77.4276 236.528 50.7186 242.263 35.5923 241.561L35.271 225.003L14.1646 220.446L20.771 199.888L6.59229 191.33C13.547 177.88 31.8676 157.616 66.8228 149.445C31.8675 141.274 13.5462 121.012 6.59131 107.561L20.77 99.0023L14.1636 78.4447L35.27 73.8881L35.5923 57.3304C50.7185 56.6282 77.4261 62.3631 101.98 88.5492C91.5789 54.1917 99.9669 28.1941 108.138 15.4457L122.638 23.4457L137.139 7.44568L151.639 23.4457Z" fill="#BFC1ED"/>
<path d="M151.639 23.4457L147.934 26.8033L150.591 29.7346L154.055 27.8236L151.639 23.4457ZM166.139 15.4457L170.349 12.7475L167.823 8.8064L163.724 11.0678L166.139 15.4457ZM172.296 88.5482L167.511 87.0995L175.944 91.9682L172.296 88.5482ZM238.686 57.3295L243.685 57.2322L243.594 52.552L238.918 52.3349L238.686 57.3295ZM239.008 73.8871L234.009 73.9844L234.086 77.9395L237.953 78.7744L239.008 73.8871ZM260.115 78.4447L264.875 79.9745L266.563 74.7219L261.17 73.5574L260.115 78.4447ZM253.508 99.0023L248.748 97.4726L247.538 101.239L250.925 103.283L253.508 99.0023ZM267.687 107.56L272.128 109.856L274.278 105.698L270.271 103.279L267.687 107.56ZM207.455 149.444L206.316 144.575L206.317 154.312L207.455 149.444ZM267.688 191.329L270.272 195.61L274.279 193.191L272.129 189.033L267.688 191.329ZM253.509 199.887L250.926 195.606L247.539 197.651L248.749 201.417L253.509 199.887ZM260.116 220.445L261.171 225.332L266.564 224.168L264.876 218.915L260.116 220.445ZM239.009 225.002L237.954 220.115L234.087 220.95L234.01 224.905L239.009 225.002ZM238.687 241.56L238.919 246.555L243.595 246.337L243.686 241.657L238.687 241.56ZM172.297 210.34L175.945 206.92L167.512 211.789L172.297 210.34ZM166.141 283.445L163.726 287.823L167.825 290.084L170.351 286.143L166.141 283.445ZM151.64 275.445L154.055 271.067L150.592 269.156L147.935 272.087L151.64 275.445ZM137.14 291.445L133.435 294.802L137.14 298.891L140.845 294.802L137.14 291.445ZM122.64 275.445L126.345 272.087L123.689 269.156L120.225 271.067L122.64 275.445ZM108.14 283.445L103.931 286.143L106.457 290.084L110.556 287.823L108.14 283.445ZM101.982 210.34L106.767 211.789L98.3345 206.92L101.982 210.34ZM35.5923 241.561L30.5932 241.658L30.684 246.338L35.3604 246.556L35.5923 241.561ZM35.271 225.003L40.2701 224.906L40.1933 220.951L36.3263 220.116L35.271 225.003ZM14.1646 220.446L9.40432 218.916L7.71633 224.169L13.1092 225.333L14.1646 220.446ZM20.771 199.888L25.5312 201.418L26.7416 197.652L23.3547 195.607L20.771 199.888ZM6.59229 191.33L2.15085 189.034L0.000820637 193.192L4.00863 195.611L6.59229 191.33ZM66.8228 149.445L67.9609 154.313L67.9609 144.576L66.8228 149.445ZM6.59131 107.561L4.00744 103.28L-8.05855e-05 105.699L2.14989 109.857L6.59131 107.561ZM20.77 99.0023L23.3539 103.283L26.7405 101.239L25.5303 97.4726L20.77 99.0023ZM14.1636 78.4447L13.1084 73.5573L7.71527 74.7216L9.40334 79.9745L14.1636 78.4447ZM35.27 73.8881L36.3252 78.7755L40.1921 77.9406L40.2691 73.9854L35.27 73.8881ZM35.5923 57.3304L35.3604 52.3358L30.6843 52.5529L30.5932 57.2331L35.5923 57.3304ZM101.98 88.5492L98.3326 91.9692L106.766 87.1005L101.98 88.5492ZM108.138 15.4457L110.554 11.0678L106.455 8.8064L103.929 12.7475L108.138 15.4457ZM122.638 23.4457L120.223 27.8236L123.686 29.7346L126.343 26.8034L122.638 23.4457ZM137.139 7.44568L140.844 4.08808L137.139 1.52588e-05L133.434 4.08796L137.139 7.44568ZM151.639 23.4457L154.055 27.8236L168.555 19.8236L166.139 15.4457L163.724 11.0678L149.224 19.0678L151.639 23.4457ZM166.139 15.4457L161.93 18.1438C169.342 29.7087 177.472 54.1959 167.511 87.0995L172.296 88.5482L177.082 89.9969C187.923 54.1861 179.279 26.6794 170.349 12.7475L166.139 15.4457ZM172.296 88.5482L175.944 91.9682C199.459 66.8895 224.732 61.6869 238.454 62.3241L238.686 57.3295L238.918 52.3349C222.388 51.5673 194.242 57.8333 168.649 85.1282L172.296 88.5482ZM238.686 57.3295L233.687 57.4268L234.009 73.9844L239.008 73.8871L244.007 73.7898L243.685 57.2322L238.686 57.3295ZM239.008 73.8871L237.953 78.7744L259.059 83.3321L260.115 78.4447L261.17 73.5574L240.064 68.9997L239.008 73.8871ZM260.115 78.4447L255.355 76.9149L248.748 97.4726L253.508 99.0023L258.269 100.532L264.875 79.9745L260.115 78.4447ZM253.508 99.0023L250.925 103.283L265.103 111.841L267.687 107.56L270.271 103.279L256.092 94.7216L253.508 99.0023ZM267.687 107.56L263.246 105.263C256.936 117.466 239.794 136.75 206.316 144.575L207.455 149.444L208.593 154.312C245.027 145.796 264.528 124.556 272.128 109.856L267.687 107.56ZM207.455 149.444L206.317 154.312C239.794 162.138 256.937 181.423 263.247 193.626L267.688 191.329L272.129 189.033C264.529 174.333 245.028 153.091 208.593 144.575L207.455 149.444ZM267.688 191.329L265.104 187.049L250.926 195.606L253.509 199.887L256.093 204.168L270.272 195.61L267.688 191.329ZM253.509 199.887L248.749 201.417L255.355 221.974L260.116 220.445L264.876 218.915L258.27 198.357L253.509 199.887ZM260.116 220.445L259.06 215.557L237.954 220.115L239.009 225.002L240.065 229.89L261.171 225.332L260.116 220.445ZM239.009 225.002L234.01 224.905L233.688 241.463L238.687 241.56L243.686 241.657L244.008 225.1L239.009 225.002ZM238.687 241.56L238.455 236.565C224.733 237.202 199.46 231.999 175.945 206.92L172.297 210.34L168.65 213.76C194.243 241.055 222.388 247.322 238.919 246.555L238.687 241.56ZM172.297 210.34L167.512 211.789C177.474 244.693 169.344 269.181 161.932 280.747L166.141 283.445L170.351 286.143C179.281 272.211 187.925 244.703 177.083 208.891L172.297 210.34ZM166.141 283.445L168.556 279.067L154.055 271.067L151.64 275.445L149.225 279.823L163.726 287.823L166.141 283.445ZM151.64 275.445L147.935 272.087L133.435 288.087L137.14 291.445L140.845 294.802L155.345 278.802L151.64 275.445ZM137.14 291.445L140.845 288.087L126.345 272.087L122.64 275.445L118.935 278.802L133.435 294.802L137.14 291.445ZM122.64 275.445L120.225 271.067L105.725 279.067L108.14 283.445L110.556 287.823L125.056 279.823L122.64 275.445ZM108.14 283.445L112.35 280.747C104.937 269.181 96.8061 244.693 106.767 211.789L101.982 210.34L97.1964 208.891C86.3548 244.703 95.0007 272.211 103.931 286.143L108.14 283.445ZM101.982 210.34L98.3345 206.92C74.819 232 49.5463 237.204 35.8242 236.566L35.5923 241.561L35.3604 246.556C51.8909 247.323 80.0361 241.056 105.629 213.76L101.982 210.34ZM35.5923 241.561L40.5913 241.464L40.2701 224.906L35.271 225.003L30.2719 225.1L30.5932 241.658L35.5923 241.561ZM35.271 225.003L36.3263 220.116L15.2199 215.558L14.1646 220.446L13.1092 225.333L34.2156 229.891L35.271 225.003ZM14.1646 220.446L18.9248 221.975L25.5312 201.418L20.771 199.888L16.0108 198.358L9.40432 218.916L14.1646 220.446ZM20.771 199.888L23.3547 195.607L9.17594 187.05L6.59229 191.33L4.00863 195.611L18.1873 204.169L20.771 199.888ZM6.59229 191.33L11.0337 193.627C17.3429 181.425 34.4848 162.139 67.9609 154.313L66.8228 149.445L65.6846 144.576C29.2503 153.093 9.75116 174.335 2.15085 189.034L6.59229 191.33ZM66.8228 149.445L67.9609 144.576C34.4845 136.751 17.342 117.467 11.0327 105.264L6.59131 107.561L2.14989 109.857C9.7505 124.557 29.2505 145.797 65.6847 154.313L66.8228 149.445ZM6.59131 107.561L9.17518 111.842L23.3539 103.283L20.77 99.0023L18.1861 94.7217L4.00744 103.28L6.59131 107.561ZM20.77 99.0023L25.5303 97.4726L18.9238 76.9149L14.1636 78.4447L9.40334 79.9745L16.0098 100.532L20.77 99.0023ZM14.1636 78.4447L15.2187 83.3321L36.3252 78.7755L35.27 73.8881L34.2149 69.0007L13.1084 73.5573L14.1636 78.4447ZM35.27 73.8881L40.2691 73.9854L40.5913 57.4277L35.5923 57.3304L30.5932 57.2331L30.271 73.7908L35.27 73.8881ZM35.5923 57.3304L35.8242 62.3251C49.5462 61.688 74.8177 66.8912 98.3326 91.9692L101.98 88.5492L105.627 85.1292C80.0346 57.8351 51.8907 51.5684 35.3604 52.3358L35.5923 57.3304ZM101.98 88.5492L106.766 87.1005C96.8045 54.1967 104.935 29.7089 112.348 18.1438L108.138 15.4457L103.929 12.7475C94.9988 26.6794 86.3532 54.1866 97.1945 89.9979L101.98 88.5492ZM108.138 15.4457L105.723 19.8236L120.223 27.8236L122.638 23.4457L125.054 19.0678L110.554 11.0678L108.138 15.4457ZM122.638 23.4457L126.343 26.8034L140.844 10.8034L137.139 7.44568L133.434 4.08796L118.933 20.088L122.638 23.4457ZM137.139 7.44568L133.434 10.8033L147.934 26.8033L151.639 23.4457L155.344 20.0881L140.844 4.08808L137.139 7.44568Z" fill="#6457C3"/>
<path d="M137.138 63.4454L137.181 149.371L211.616 106.445L137.224 149.445L211.616 192.445L137.181 149.52L137.138 235.445L137.095 149.52L62.66 192.445L137.052 149.445L62.66 106.445L137.095 149.371L137.138 63.4454Z" stroke="#A4A0F2" stroke-width="8" stroke-linejoin="round"/>
<path d="M139.842 106.496L142.475 108.911L145.644 107.26L148.896 105.566L150.865 108.66L152.783 111.672L156.271 110.899L159.852 110.104L160.954 113.602L162.027 117.009L165.597 117.164L169.26 117.324L169.419 120.987L169.573 124.555L172.981 125.629L176.479 126.732L175.685 130.312L174.91 133.799L177.924 135.718L181.018 137.688L179.323 140.94L177.673 144.108L180.087 146.742L182.565 149.445L180.087 152.148L177.673 154.781L179.323 157.95L181.018 161.202L177.924 163.171L174.91 165.089L175.685 168.578L176.479 172.158L172.981 173.26L169.573 174.333L169.419 177.903L169.26 181.566L165.597 181.725L162.027 181.879L160.954 185.287L159.852 188.786L156.271 187.991L152.783 187.216L150.865 190.23L148.896 193.324L145.644 191.629L142.475 189.979L139.842 192.393L137.139 194.871L134.436 192.393L131.802 189.979L128.634 191.629L125.382 193.324L123.412 190.23L121.493 187.216L118.006 187.991L114.426 188.786L113.323 185.287L112.249 181.879L108.681 181.725L105.018 181.566L104.858 177.903L104.703 174.333L101.296 173.26L97.7979 172.158L98.5928 168.578L99.3662 165.089L96.3535 163.171L93.2598 161.202L94.9541 157.95L96.6045 154.781L94.1904 152.148L91.7119 149.445L94.1904 146.742L96.6045 144.108L94.9541 140.94L93.2598 137.688L96.3535 135.718L99.3662 133.799L98.5928 130.312L97.7979 126.732L101.296 125.629L104.703 124.555L104.858 120.987L105.018 117.324L108.681 117.164L112.249 117.009L113.323 113.602L114.426 110.104L118.006 110.899L121.493 111.672L123.412 108.66L125.382 105.566L128.634 107.26L131.802 108.911L134.436 106.496L137.139 104.018L139.842 106.496Z" fill="#8686F4" stroke="#6653E2" stroke-width="8"/>
</svg>
